<?xml version="1.0" encoding="UTF-8" standalone="no"?>
<svg
   xmlns:dc="http://purl.org/dc/elements/1.1/"
   xmlns:cc="http://creativecommons.org/ns#"
   xmlns:rdf="http://www.w3.org/1999/02/22-rdf-syntax-ns#"
   xmlns:svg="http://www.w3.org/2000/svg"
   xmlns="http://www.w3.org/2000/svg"
   viewBox="0 0 1248 1008"
   height="1008"
   width="1248"
   xml:space="preserve"
   id="svg2"
   version="1.1"><metadata
     id="metadata8"><rdf:RDF><cc:Work
         rdf:about=""><dc:format>image/svg+xml</dc:format><dc:type
           rdf:resource="http://purl.org/dc/dcmitype/StillImage" /></cc:Work></rdf:RDF></metadata><defs
     id="defs6"><clipPath
       id="clipPath18"
       clipPathUnits="userSpaceOnUse"><path
         id="path16"
         d="M 0,756 H 936 V 0 H 0 Z" /></clipPath></defs><g
     transform="matrix(1.3333333,0,0,-1.3333333,0,1008)"
     id="g10"><g
       id="g12"><g
         clip-path="url(#clipPath18)"
         id="g14"><g
           transform="translate(457.9004,382.9131)"
           id="g20"><path
             id="path22"
             style="fill:#3284bf;fill-opacity:1;fill-rule:nonzero;stroke:none"
             d="m 0,0 -0.568,-6.311 c -0.132,-1.293 -0.919,-2.065 -2.107,-2.065 -0.532,0 -0.946,0.157 -1.228,0.466 -0.341,0.374 -0.486,0.969 -0.419,1.722 L -3.771,0 h -2.135 l -0.541,-6.122 c 0,-0.007 -0.001,-0.203 -0.001,-0.203 l 0.026,-0.936 c 0.258,-1.979 1.631,-3.204 3.582,-3.204 2.444,0 4.18,1.654 4.419,4.222 L 2.134,0 H 2.051 Z" /></g><g
           transform="translate(467.2187,383.124)"
           id="g24"><path
             id="path26"
             style="fill:#3284bf;fill-opacity:1;fill-rule:nonzero;stroke:none"
             d="m 0,0 c -3.171,0 -5.409,-2.121 -5.703,-5.403 -0.134,-1.541 0.282,-2.923 1.173,-3.895 0.847,-0.931 2.081,-1.419 3.566,-1.419 0.931,0 1.849,0.255 2.811,0.774 l 0.042,0.023 0.245,2.762 -0.175,-0.176 c -0.835,-0.834 -1.713,-1.221 -2.765,-1.221 -0.866,0 -1.577,0.278 -2.058,0.801 -0.515,0.566 -0.753,1.407 -0.667,2.374 0.178,1.998 1.457,3.237 3.341,3.237 0.799,0 1.72,-0.136 2.495,-1.162 l 0.14,-0.179 0.254,2.687 -0.047,0.028 C 1.849,-0.254 0.981,0 0,0" /></g><g
           transform="translate(476.2246,374.7021)"
           id="g28"><path
             id="path30"
             style="fill:#3284bf;fill-opacity:1;fill-rule:nonzero;stroke:none"
             d="m 0,0 h -2.736 c 0.017,0.19 0.721,8.227 0.721,8.227 H -2.111 -4.173 L -5.087,-2.057 H 0.959 L 1.16,0.021 Z" /></g><g
           transform="translate(483.6191,383.3965)"
           id="g32"><path
             id="path34"
             style="fill:#3284bf;fill-opacity:1;fill-rule:nonzero;stroke:none"
             d="m 0,0 h -0.064 -0.192 l -5.511,-10.75 h 2.308 c 0,0 0.713,1.506 0.761,1.602 h 3.69 c 0.035,-0.12 0.479,-1.605 0.479,-1.605 l 2.29,0.003 z m -1.834,-7.283 c 0,0 1.234,2.727 1.261,2.789 0.057,0.135 0.112,0.301 0.133,0.393 h 0.03 c 0.009,-0.116 0.029,-0.256 0.07,-0.395 0.101,-0.426 0.811,-2.79 0.811,-2.79 z" /></g></g></g></g></svg>