<svg width="749" height="102" viewBox="0 0 749 102" fill="none" xmlns="http://www.w3.org/2000/svg">
<rect width="749" height="102" fill="black" fill-opacity="0"/>
<path d="M151.47 72.597H151.847C152.098 72.597 152.285 72.5623 152.406 72.493C152.536 72.415 152.601 72.2937 152.601 72.129V64.498H150.82C150.473 64.498 150.226 64.732 150.079 65.2C149.94 65.6593 149.867 66.11 149.858 66.552H149.455V63.9H157.307V66.552H156.891C156.882 66.11 156.804 65.6593 156.657 65.2C156.518 64.732 156.276 64.498 155.929 64.498H154.161V72.129C154.161 72.441 154.408 72.597 154.902 72.597H155.292V73H151.47V72.597ZM166.405 72.61V73H163.051V72.61H163.272C163.471 72.61 163.631 72.5753 163.753 72.506C163.874 72.4367 163.935 72.3283 163.935 72.181V68.697C163.935 68.255 163.826 67.9257 163.61 67.709C163.393 67.4837 163.081 67.371 162.674 67.371C162.396 67.371 162.123 67.4447 161.855 67.592C161.595 67.7393 161.378 67.9647 161.205 68.268C161.031 68.5713 160.945 68.9397 160.945 69.373V72.181C160.945 72.3283 161.005 72.4367 161.127 72.506C161.248 72.5753 161.408 72.61 161.608 72.61H161.829V73H158.475V72.61H158.748C158.964 72.61 159.133 72.5753 159.255 72.506C159.385 72.4367 159.45 72.3283 159.45 72.181V64.888C159.45 64.68 159.346 64.576 159.138 64.576C159.068 64.576 158.951 64.6063 158.787 64.667L158.683 64.329L160.581 63.679H160.945V67.839C161.144 67.527 161.443 67.2713 161.842 67.072C162.24 66.864 162.674 66.76 163.142 66.76C163.887 66.76 164.455 66.9203 164.845 67.241C165.235 67.5617 165.43 67.995 165.43 68.541V72.181C165.43 72.3283 165.49 72.4367 165.612 72.506C165.742 72.5753 165.915 72.61 166.132 72.61H166.405ZM169.01 69.685C169.001 69.7457 168.997 69.8367 168.997 69.958C168.997 70.7467 169.183 71.3837 169.556 71.869C169.929 72.3543 170.423 72.597 171.038 72.597C171.61 72.597 172.078 72.454 172.442 72.168C172.806 71.8733 173.044 71.4227 173.157 70.816H173.586C173.517 71.5007 173.248 72.0597 172.78 72.493C172.312 72.9177 171.662 73.13 170.83 73.13C169.764 73.13 168.936 72.857 168.347 72.311C167.766 71.7563 167.476 70.9677 167.476 69.945C167.476 68.957 167.766 68.1813 168.347 67.618C168.928 67.046 169.729 66.76 170.752 66.76C171.697 66.76 172.412 67.0027 172.897 67.488C173.382 67.9647 173.625 68.5887 173.625 69.36V69.685H169.01ZM170.804 67.319C170.336 67.319 169.955 67.4837 169.66 67.813C169.365 68.1337 169.17 68.567 169.075 69.113H172.312C172.303 68.6623 172.178 68.2507 171.935 67.878C171.701 67.5053 171.324 67.319 170.804 67.319ZM187.587 72.597V73H185.221L181.269 68.905V72.129C181.269 72.441 181.516 72.597 182.01 72.597H182.4V73H178.578V72.597H178.955C179.206 72.597 179.393 72.5623 179.514 72.493C179.644 72.415 179.709 72.2937 179.709 72.129V64.784C179.709 64.4633 179.458 64.303 178.955 64.303H178.578V63.9H182.4V64.303H182.01C181.516 64.303 181.269 64.4633 181.269 64.784V67.956L184.922 64.745C184.991 64.6757 185.026 64.6107 185.026 64.55C185.026 64.3853 184.861 64.303 184.532 64.303H184.337V63.9H187.093V64.303H186.807C186.651 64.303 186.517 64.329 186.404 64.381C186.291 64.433 186.179 64.5067 186.066 64.602L182.27 67.995L186.053 71.921C186.278 72.1463 186.473 72.3153 186.638 72.428C186.803 72.5407 186.993 72.597 187.21 72.597H187.587ZM189.829 73.13C189.292 73.13 188.863 73.0087 188.542 72.766C188.222 72.5147 188.061 72.1767 188.061 71.752C188.061 71.102 188.395 70.5777 189.062 70.179C189.73 69.7717 190.757 69.4727 192.143 69.282V68.658C192.143 68.2247 192.009 67.8997 191.74 67.683C191.48 67.4663 191.129 67.358 190.687 67.358C190.367 67.358 190.072 67.423 189.803 67.553C189.543 67.6743 189.413 67.8043 189.413 67.943C189.413 68.0037 189.422 68.0773 189.439 68.164C189.457 68.242 189.465 68.3027 189.465 68.346C189.465 68.476 189.418 68.593 189.322 68.697C189.236 68.801 189.097 68.853 188.906 68.853C188.742 68.853 188.599 68.7923 188.477 68.671C188.365 68.5497 188.308 68.3807 188.308 68.164C188.308 67.7133 188.564 67.3667 189.075 67.124C189.587 66.8813 190.228 66.76 190.999 66.76C191.857 66.76 192.512 66.9463 192.962 67.319C193.422 67.683 193.651 68.1857 193.651 68.827V72.168C193.651 72.4453 193.755 72.584 193.963 72.584C194.093 72.584 194.254 72.5493 194.444 72.48V72.753C194.288 72.8743 194.098 72.9653 193.872 73.026C193.647 73.0953 193.413 73.13 193.17 73.13C192.902 73.13 192.668 73.0823 192.468 72.987C192.269 72.883 192.169 72.7097 192.169 72.467V72.155C191.84 72.519 191.467 72.7747 191.051 72.922C190.635 73.0607 190.228 73.13 189.829 73.13ZM190.557 72.532C190.843 72.532 191.142 72.4367 191.454 72.246C191.766 72.0553 191.996 71.8343 192.143 71.583V69.75C191.285 69.9407 190.635 70.205 190.193 70.543C189.76 70.881 189.543 71.245 189.543 71.635C189.543 71.921 189.634 72.142 189.816 72.298C189.998 72.454 190.245 72.532 190.557 72.532ZM198.244 73.13C197.369 73.13 196.684 72.8657 196.19 72.337C195.696 71.8083 195.449 70.9677 195.449 69.815C195.449 69.1563 195.571 68.5973 195.813 68.138C196.056 67.6787 196.385 67.3363 196.801 67.111C197.217 66.877 197.694 66.76 198.231 66.76C199.167 66.76 199.861 67.046 200.311 67.618V64.888C200.311 64.68 200.212 64.576 200.012 64.576C199.934 64.576 199.813 64.6063 199.648 64.667L199.557 64.329L201.442 63.679H201.806V72.025C201.806 72.1897 201.85 72.311 201.936 72.389C202.032 72.4583 202.175 72.493 202.365 72.493H202.677V72.857L200.584 73.065L200.519 72.051C200.285 72.4237 199.982 72.6967 199.609 72.87C199.237 73.0433 198.782 73.13 198.244 73.13ZM198.673 72.558C199.185 72.558 199.588 72.3847 199.882 72.038C200.177 71.6913 200.324 71.2797 200.324 70.803V68.866C200.324 68.5713 200.246 68.3113 200.09 68.086C199.934 67.852 199.735 67.67 199.492 67.54C199.25 67.41 199.003 67.345 198.751 67.345C197.538 67.345 196.931 68.1813 196.931 69.854C196.931 71.6567 197.512 72.558 198.673 72.558ZM205.478 73.13C204.941 73.13 204.512 73.0087 204.191 72.766C203.871 72.5147 203.71 72.1767 203.71 71.752C203.71 71.102 204.044 70.5777 204.711 70.179C205.379 69.7717 206.406 69.4727 207.792 69.282V68.658C207.792 68.2247 207.658 67.8997 207.389 67.683C207.129 67.4663 206.778 67.358 206.336 67.358C206.016 67.358 205.721 67.423 205.452 67.553C205.192 67.6743 205.062 67.8043 205.062 67.943C205.062 68.0037 205.071 68.0773 205.088 68.164C205.106 68.242 205.114 68.3027 205.114 68.346C205.114 68.476 205.067 68.593 204.971 68.697C204.885 68.801 204.746 68.853 204.555 68.853C204.391 68.853 204.248 68.7923 204.126 68.671C204.014 68.5497 203.957 68.3807 203.957 68.164C203.957 67.7133 204.213 67.3667 204.724 67.124C205.236 66.8813 205.877 66.76 206.648 66.76C207.506 66.76 208.161 66.9463 208.611 67.319C209.071 67.683 209.3 68.1857 209.3 68.827V72.168C209.3 72.4453 209.404 72.584 209.612 72.584C209.742 72.584 209.903 72.5493 210.093 72.48V72.753C209.937 72.8743 209.747 72.9653 209.521 73.026C209.296 73.0953 209.062 73.13 208.819 73.13C208.551 73.13 208.317 73.0823 208.117 72.987C207.918 72.883 207.818 72.7097 207.818 72.467V72.155C207.489 72.519 207.116 72.7747 206.7 72.922C206.284 73.0607 205.877 73.13 205.478 73.13ZM206.206 72.532C206.492 72.532 206.791 72.4367 207.103 72.246C207.415 72.0553 207.645 71.8343 207.792 71.583V69.75C206.934 69.9407 206.284 70.205 205.842 70.543C205.409 70.881 205.192 71.245 205.192 71.635C205.192 71.921 205.283 72.142 205.465 72.298C205.647 72.454 205.894 72.532 206.206 72.532ZM222.63 72.61V73H219.224V72.61H219.497C219.713 72.61 219.882 72.5753 220.004 72.506C220.134 72.4367 220.199 72.3283 220.199 72.181V68.697C220.199 68.255 220.099 67.9257 219.9 67.709C219.7 67.4837 219.427 67.371 219.081 67.371C218.656 67.371 218.288 67.5443 217.976 67.891C217.672 68.229 217.521 68.723 217.521 69.373V72.168C217.521 72.3153 217.581 72.428 217.703 72.506C217.833 72.5753 218.006 72.61 218.223 72.61H218.34V73H215.246V72.61H215.389C215.605 72.61 215.774 72.5753 215.896 72.506C216.026 72.4367 216.091 72.3283 216.091 72.181V68.697C216.091 68.255 215.991 67.9257 215.792 67.709C215.592 67.4837 215.319 67.371 214.973 67.371C214.548 67.371 214.184 67.5443 213.881 67.891C213.577 68.229 213.426 68.723 213.426 69.373V72.168C213.426 72.3153 213.486 72.428 213.608 72.506C213.738 72.5753 213.911 72.61 214.128 72.61H214.375V73H210.956V72.61H211.242C211.45 72.61 211.614 72.5753 211.736 72.506C211.866 72.4367 211.931 72.3283 211.931 72.181V68.034C211.931 67.826 211.831 67.722 211.632 67.722C211.554 67.722 211.432 67.7523 211.268 67.813L211.177 67.475L213.062 66.825H213.426V67.813C213.608 67.5097 213.876 67.2583 214.232 67.059C214.587 66.8597 214.99 66.76 215.441 66.76C216.004 66.76 216.45 66.864 216.78 67.072C217.118 67.28 217.339 67.5747 217.443 67.956C217.59 67.618 217.854 67.3363 218.236 67.111C218.626 66.877 219.063 66.76 219.549 66.76C220.251 66.76 220.784 66.9203 221.148 67.241C221.512 67.5617 221.694 67.995 221.694 68.541V72.168C221.694 72.3153 221.754 72.428 221.876 72.506C222.006 72.5753 222.175 72.61 222.383 72.61H222.63ZM227.719 73.13C227.164 73.13 226.696 73.0433 226.315 72.87C225.942 72.688 225.661 72.4453 225.47 72.142L225.08 73H224.378V64.888C224.378 64.68 224.278 64.576 224.079 64.576C224.001 64.576 223.88 64.6063 223.715 64.667L223.624 64.329L225.509 63.679H225.873V67.735C226.09 67.4057 226.389 67.163 226.77 67.007C227.151 66.8423 227.537 66.76 227.927 66.76C228.785 66.76 229.47 67.0287 229.981 67.566C230.492 68.0947 230.748 68.853 230.748 69.841C230.748 71.011 230.484 71.8517 229.955 72.363C229.435 72.8743 228.69 73.13 227.719 73.13ZM227.524 72.558C228.685 72.558 229.266 71.674 229.266 69.906C229.266 68.1987 228.664 67.345 227.459 67.345C227.208 67.345 226.961 67.4143 226.718 67.553C226.475 67.6917 226.272 67.891 226.107 68.151C225.951 68.4023 225.873 68.6883 225.873 69.009V70.751C225.873 71.063 225.938 71.3577 226.068 71.635C226.198 71.9037 226.389 72.1247 226.64 72.298C226.891 72.4713 227.186 72.558 227.524 72.558ZM233.55 65.72C233.299 65.72 233.095 65.6463 232.939 65.499C232.783 65.343 232.705 65.148 232.705 64.914C232.705 64.6713 232.783 64.4763 232.939 64.329C233.095 64.173 233.299 64.095 233.55 64.095C233.793 64.095 233.992 64.173 234.148 64.329C234.304 64.4763 234.382 64.6713 234.382 64.914C234.382 65.148 234.304 65.343 234.148 65.499C233.992 65.6463 233.793 65.72 233.55 65.72ZM231.951 72.61H232.224C232.441 72.61 232.61 72.5753 232.731 72.506C232.861 72.4367 232.926 72.3283 232.926 72.181V68.021C232.926 67.8043 232.822 67.696 232.614 67.696C232.571 67.696 232.51 67.709 232.432 67.735C232.363 67.761 232.306 67.7783 232.263 67.787L232.159 67.449L234.057 66.812H234.421V72.181C234.421 72.3283 234.482 72.4367 234.603 72.506C234.733 72.5753 234.902 72.61 235.11 72.61H235.396V73H231.951V72.61ZM240.3 72.597H240.677C240.928 72.597 241.115 72.5623 241.236 72.493C241.366 72.415 241.431 72.2937 241.431 72.129V64.784C241.431 64.4633 241.18 64.303 240.677 64.303H240.3V63.9H244.122V64.303H243.732C243.238 64.303 242.991 64.4633 242.991 64.784V71.843C242.991 72.2157 243.251 72.402 243.771 72.402H246.176C246.54 72.402 246.817 72.1897 247.008 71.765C247.207 71.3403 247.333 70.9157 247.385 70.491H247.814L247.58 73H240.3V72.597ZM250.636 73.13C250.099 73.13 249.67 73.0087 249.349 72.766C249.029 72.5147 248.868 72.1767 248.868 71.752C248.868 71.102 249.202 70.5777 249.869 70.179C250.537 69.7717 251.564 69.4727 252.95 69.282V68.658C252.95 68.2247 252.816 67.8997 252.547 67.683C252.287 67.4663 251.936 67.358 251.494 67.358C251.174 67.358 250.879 67.423 250.61 67.553C250.35 67.6743 250.22 67.8043 250.22 67.943C250.22 68.0037 250.229 68.0773 250.246 68.164C250.264 68.242 250.272 68.3027 250.272 68.346C250.272 68.476 250.225 68.593 250.129 68.697C250.043 68.801 249.904 68.853 249.713 68.853C249.549 68.853 249.406 68.7923 249.284 68.671C249.172 68.5497 249.115 68.3807 249.115 68.164C249.115 67.7133 249.371 67.3667 249.882 67.124C250.394 66.8813 251.035 66.76 251.806 66.76C252.664 66.76 253.319 66.9463 253.769 67.319C254.229 67.683 254.458 68.1857 254.458 68.827V72.168C254.458 72.4453 254.562 72.584 254.77 72.584C254.9 72.584 255.061 72.5493 255.251 72.48V72.753C255.095 72.8743 254.905 72.9653 254.679 73.026C254.454 73.0953 254.22 73.13 253.977 73.13C253.709 73.13 253.475 73.0823 253.275 72.987C253.076 72.883 252.976 72.7097 252.976 72.467V72.155C252.647 72.519 252.274 72.7747 251.858 72.922C251.442 73.0607 251.035 73.13 250.636 73.13ZM251.364 72.532C251.65 72.532 251.949 72.4367 252.261 72.246C252.573 72.0553 252.803 71.8343 252.95 71.583V69.75C252.092 69.9407 251.442 70.205 251 70.543C250.567 70.881 250.35 71.245 250.35 71.635C250.35 71.921 250.441 72.142 250.623 72.298C250.805 72.454 251.052 72.532 251.364 72.532ZM260.221 73.13C259.667 73.13 259.199 73.0433 258.817 72.87C258.445 72.688 258.163 72.4453 257.972 72.142L257.582 73H256.88V64.888C256.88 64.68 256.781 64.576 256.581 64.576C256.503 64.576 256.382 64.6063 256.217 64.667L256.126 64.329L258.011 63.679H258.375V67.735C258.592 67.4057 258.891 67.163 259.272 67.007C259.654 66.8423 260.039 66.76 260.429 66.76C261.287 66.76 261.972 67.0287 262.483 67.566C262.995 68.0947 263.25 68.853 263.25 69.841C263.25 71.011 262.986 71.8517 262.457 72.363C261.937 72.8743 261.192 73.13 260.221 73.13ZM260.026 72.558C261.188 72.558 261.768 71.674 261.768 69.906C261.768 68.1987 261.166 67.345 259.961 67.345C259.71 67.345 259.463 67.4143 259.22 67.553C258.978 67.6917 258.774 67.891 258.609 68.151C258.453 68.4023 258.375 68.6883 258.375 69.009V70.751C258.375 71.063 258.44 71.3577 258.57 71.635C258.7 71.9037 258.891 72.1247 259.142 72.298C259.394 72.4713 259.688 72.558 260.026 72.558Z" fill="#AAAAAA"/>
<path d="M156.152 56H152.61L147.308 41.48H150.52L153.578 50.72L154.414 53.58L155.228 50.742L158.308 41.48H161.432L156.152 56ZM167.546 56H164.51V41.48H167.546V56ZM177.503 41.26C178.852 41.26 180.011 41.4873 180.979 41.942C181.947 42.382 182.797 43.086 183.531 44.054L181.441 46.1C181.059 45.308 180.553 44.7213 179.923 44.34C179.292 43.944 178.493 43.746 177.525 43.746C176.645 43.746 175.963 43.9147 175.479 44.252C175.009 44.5747 174.775 45.0073 174.775 45.55C174.775 46.0487 175.017 46.4447 175.501 46.738C175.985 47.0313 176.857 47.288 178.119 47.508C179.439 47.7573 180.487 48.0653 181.265 48.432C182.042 48.7987 182.607 49.2607 182.959 49.818C183.325 50.3607 183.509 51.0427 183.509 51.864C183.509 52.7587 183.252 53.536 182.739 54.196C182.24 54.8413 181.536 55.34 180.627 55.692C179.732 56.044 178.705 56.22 177.547 56.22C175.948 56.22 174.635 56 173.609 55.56C172.597 55.1053 171.775 54.4233 171.145 53.514L172.949 51.358C173.491 52.2527 174.115 52.876 174.819 53.228C175.523 53.5653 176.395 53.734 177.437 53.734C178.375 53.734 179.087 53.5873 179.571 53.294C180.069 53.0007 180.319 52.5827 180.319 52.04C180.319 51.644 180.084 51.314 179.615 51.05C179.16 50.786 178.339 50.5367 177.151 50.302C175.787 50.0233 174.694 49.6933 173.873 49.312C173.066 48.9307 172.479 48.4613 172.113 47.904C171.746 47.3467 171.563 46.6573 171.563 45.836C171.563 44.9707 171.797 44.1933 172.267 43.504C172.736 42.8 173.418 42.25 174.313 41.854C175.222 41.458 176.285 41.26 177.503 41.26ZM199.406 50.28C199.406 52.2453 198.878 53.7267 197.822 54.724C196.78 55.7213 195.24 56.22 193.202 56.22C191.163 56.22 189.616 55.7213 188.56 54.724C187.518 53.7267 186.998 52.2453 186.998 50.28V41.48H190.034V50.148C190.034 51.3653 190.29 52.2673 190.804 52.854C191.332 53.4407 192.131 53.734 193.202 53.734C194.272 53.734 195.064 53.4407 195.578 52.854C196.091 52.2673 196.348 51.3653 196.348 50.148V41.48H199.406V50.28ZM211.537 52.458H205.949L204.761 56H201.659L206.961 41.48H210.591L215.893 56H212.747L211.537 52.458ZM210.789 50.214L209.425 46.122L208.765 43.922H208.721L208.105 46.078L206.697 50.214H210.789ZM229.619 53.558V56H218.927V41.48H221.963V53.558H229.619ZM255.883 56H253.155V48.432L253.287 44.186H253.243L249.217 56H246.731L242.727 44.186H242.683L242.837 48.432V56H240.087V41.48H244.487L247.105 49.4L248.029 52.678H248.073L249.019 49.422L251.615 41.48H255.883V56ZM268.789 52.458H263.201L262.013 56H258.911L264.213 41.48H267.843L273.145 56H269.999L268.789 52.458ZM268.041 50.214L266.677 46.122L266.017 43.922H265.973L265.357 46.078L263.949 50.214H268.041ZM288.072 51.996C287.647 53.3893 286.891 54.4453 285.806 55.164C284.721 55.868 283.423 56.22 281.912 56.22C280.489 56.22 279.25 55.9193 278.194 55.318C277.138 54.7167 276.324 53.8587 275.752 52.744C275.195 51.6147 274.916 50.28 274.916 48.74C274.916 47.2 275.195 45.8727 275.752 44.758C276.324 43.6287 277.131 42.7633 278.172 42.162C279.228 41.5607 280.46 41.26 281.868 41.26C283.379 41.26 284.655 41.5753 285.696 42.206C286.752 42.8367 287.478 43.7753 287.874 45.022L285.124 46.188C284.889 45.3227 284.523 44.6993 284.024 44.318C283.525 43.9367 282.851 43.746 282 43.746C280.768 43.746 279.8 44.1787 279.096 45.044C278.407 45.9093 278.062 47.1413 278.062 48.74C278.062 50.3387 278.399 51.5707 279.074 52.436C279.749 53.3013 280.702 53.734 281.934 53.734C283.709 53.734 284.823 52.876 285.278 51.16L288.072 51.996ZM304.014 41.48V56H300.978V49.884H294.576V56H291.54V41.48H294.576V47.442H300.978V41.48H304.014ZM311.719 56H308.683V41.48H311.719V56ZM328.848 56H325.372L320.29 47.464L319.036 45.022H319.014L319.102 47.596V56H316.374V41.48H319.828L324.91 49.994L326.164 52.458H326.208L326.12 49.884V41.48H328.848V56ZM344.716 53.558V56H333.518V41.48H344.408V43.922H336.554V47.53H342.736V49.862H336.554V53.558H344.716ZM353.621 41.26C354.971 41.26 356.129 41.4873 357.097 41.942C358.065 42.382 358.916 43.086 359.649 44.054L357.559 46.1C357.178 45.308 356.672 44.7213 356.041 44.34C355.411 43.944 354.611 43.746 353.643 43.746C352.763 43.746 352.081 43.9147 351.597 44.252C351.128 44.5747 350.893 45.0073 350.893 45.55C350.893 46.0487 351.135 46.4447 351.619 46.738C352.103 47.0313 352.976 47.288 354.237 47.508C355.557 47.7573 356.606 48.0653 357.383 48.432C358.161 48.7987 358.725 49.2607 359.077 49.818C359.444 50.3607 359.627 51.0427 359.627 51.864C359.627 52.7587 359.371 53.536 358.857 54.196C358.359 54.8413 357.655 55.34 356.745 55.692C355.851 56.044 354.824 56.22 353.665 56.22C352.067 56.22 350.754 56 349.727 55.56C348.715 55.1053 347.894 54.4233 347.263 53.514L349.067 51.358C349.61 52.2527 350.233 52.876 350.937 53.228C351.641 53.5653 352.514 53.734 353.555 53.734C354.494 53.734 355.205 53.5873 355.689 53.294C356.188 53.0007 356.437 52.5827 356.437 52.04C356.437 51.644 356.203 51.314 355.733 51.05C355.279 50.786 354.457 50.5367 353.269 50.302C351.905 50.0233 350.813 49.6933 349.991 49.312C349.185 48.9307 348.598 48.4613 348.231 47.904C347.865 47.3467 347.681 46.6573 347.681 45.836C347.681 44.9707 347.916 44.1933 348.385 43.504C348.855 42.8 349.537 42.25 350.431 41.854C351.341 41.458 352.404 41.26 353.621 41.26ZM383.525 48.322V56H381.303L381.237 54.262C380.357 55.5673 378.927 56.22 376.947 56.22C375.612 56.22 374.439 55.9267 373.427 55.34C372.415 54.7533 371.623 53.9027 371.051 52.788C370.493 51.6587 370.215 50.3167 370.215 48.762C370.215 47.222 370.501 45.8873 371.073 44.758C371.659 43.6287 372.481 42.7633 373.537 42.162C374.607 41.5607 375.854 41.26 377.277 41.26C378.846 41.26 380.122 41.546 381.105 42.118C382.102 42.69 382.887 43.592 383.459 44.824L380.665 46.034C380.445 45.286 380.041 44.7213 379.455 44.34C378.883 43.944 378.186 43.746 377.365 43.746C376.103 43.746 375.121 44.1787 374.417 45.044C373.713 45.9093 373.361 47.1413 373.361 48.74C373.361 50.3973 373.705 51.6513 374.395 52.502C375.084 53.3527 376.096 53.778 377.431 53.778C378.457 53.778 379.293 53.536 379.939 53.052C380.584 52.5533 380.907 51.8347 380.907 50.896V50.566H376.661V48.322H383.525ZM393.439 50.434H390.711V56H387.719V41.48H394.121C395.779 41.48 397.069 41.876 397.993 42.668C398.932 43.4453 399.401 44.5453 399.401 45.968C399.401 47.0093 399.145 47.882 398.631 48.586C398.118 49.29 397.385 49.796 396.431 50.104L400.259 56H396.849L393.439 50.434ZM390.711 48.124H393.725C394.605 48.124 395.251 47.9553 395.661 47.618C396.087 47.266 396.299 46.7307 396.299 46.012C396.299 45.2933 396.087 44.7653 395.661 44.428C395.251 44.076 394.605 43.9 393.725 43.9H390.711V48.124ZM409.672 41.26C411.095 41.26 412.327 41.5607 413.368 42.162C414.424 42.7633 415.231 43.6287 415.788 44.758C416.36 45.8727 416.646 47.2 416.646 48.74C416.646 50.28 416.36 51.6147 415.788 52.744C415.231 53.8587 414.424 54.7167 413.368 55.318C412.327 55.9193 411.095 56.22 409.672 56.22C408.249 56.22 407.01 55.9193 405.954 55.318C404.898 54.7167 404.084 53.8587 403.512 52.744C402.955 51.6147 402.676 50.28 402.676 48.74C402.676 47.2 402.955 45.8727 403.512 44.758C404.084 43.6287 404.898 42.7633 405.954 42.162C407.01 41.5607 408.249 41.26 409.672 41.26ZM409.672 43.746C408.44 43.746 407.487 44.1787 406.812 45.044C406.152 45.8947 405.822 47.1267 405.822 48.74C405.822 50.3533 406.152 51.5927 406.812 52.458C407.487 53.3087 408.44 53.734 409.672 53.734C410.889 53.734 411.828 53.3087 412.488 52.458C413.163 51.5927 413.5 50.3533 413.5 48.74C413.5 47.1267 413.163 45.8947 412.488 45.044C411.828 44.1787 410.889 43.746 409.672 43.746ZM432.777 50.28C432.777 52.2453 432.249 53.7267 431.193 54.724C430.151 55.7213 428.611 56.22 426.573 56.22C424.534 56.22 422.987 55.7213 421.931 54.724C420.889 53.7267 420.369 52.2453 420.369 50.28V41.48H423.405V50.148C423.405 51.3653 423.661 52.2673 424.175 52.854C424.703 53.4407 425.502 53.734 426.573 53.734C427.643 53.734 428.435 53.4407 428.949 52.854C429.462 52.2673 429.719 51.3653 429.719 50.148V41.48H432.777V50.28ZM443.289 41.48C444.976 41.48 446.288 41.8907 447.227 42.712C448.166 43.5187 448.635 44.6627 448.635 46.144C448.635 47.5813 448.166 48.7033 447.227 49.51C446.288 50.3167 444.976 50.72 443.289 50.72H440.231V56H437.195V41.48H443.289ZM442.827 48.366C443.766 48.366 444.455 48.1827 444.895 47.816C445.335 47.4347 445.555 46.87 445.555 46.122C445.555 45.374 445.335 44.8167 444.895 44.45C444.455 44.0833 443.766 43.9 442.827 43.9H440.231V48.366H442.827Z" fill="white"/>
<rect width="80" height="24.0002" fill="black" fill-opacity="0" transform="translate(50 36)"/>
<rect width="80" height="24.0002" fill="black" fill-opacity="0" transform="translate(50 36)"/>
<rect width="80" height="24.0002" fill="black" fill-opacity="0" transform="translate(50 36)"/>
<rect width="60" height="18.0002" fill="black" fill-opacity="0" transform="translate(50 60.0002) scale(1.33333 -1.33333)"/>
<rect width="60" height="18.0002" fill="black" fill-opacity="0" transform="translate(50 60.0002) scale(1.33333 -1.33333)"/>
<rect width="60" height="18.0002" fill="black" fill-opacity="0" transform="translate(50 60.0002) scale(1.33333 -1.33333)"/>
<rect width="14.332" height="17.1408" fill="black" fill-opacity="0" transform="translate(50 59.9102) scale(1.33333 -1.33333)"/>
<path d="M64.3576 37.0558L63.0928 50.8383C62.7989 53.6621 61.0465 55.348 58.4012 55.348C57.2167 55.348 56.2948 55.0051 55.6669 54.3303C54.9076 53.5136 54.5847 52.2141 54.7339 50.5697L55.9608 37.0558H51.2069L50.0022 50.4255C50.0022 50.4408 50 50.8689 50 50.8689L50.0579 52.913C50.6324 57.2349 53.6896 59.9102 58.0338 59.9102C63.4758 59.9102 67.3413 56.298 67.8735 50.6898L69.1093 37.0558H68.9245H64.3576Z" fill="#3284BF"/>
<rect width="14.0725" height="17.5535" fill="black" fill-opacity="0" transform="translate(72.353 60.0002) scale(1.33333 -1.33333)"/>
<path d="M85.1066 36.5955C78.0458 36.5955 73.0625 41.2276 72.4079 48.3951C72.1095 51.7604 73.0358 54.7786 75.0197 56.9013C76.9057 58.9345 79.6535 60.0002 82.9601 60.0002C85.0331 60.0002 87.0772 59.4434 89.2192 58.3099L89.3128 58.2597L89.8583 52.2278L89.4686 52.6122C87.6094 54.4335 85.6543 55.2787 83.3119 55.2787C81.3836 55.2787 79.8004 54.6716 78.7294 53.5294C77.5826 52.2933 77.0527 50.4567 77.2442 48.3448C77.6405 43.9814 80.4885 41.2756 84.6835 41.2756C86.4626 41.2756 88.5134 41.5726 90.2391 43.8133L90.5508 44.2042L91.1164 38.3361L91.0117 38.275C89.2237 37.1503 87.2909 36.5955 85.1066 36.5955Z" fill="#3284BF"/>
<rect width="10.4325" height="16.8443" fill="black" fill-opacity="0" transform="translate(93.8325 59.4802) scale(1.33333 -1.33333)"/>
<path d="M105.16 54.988H99.0674C99.1053 54.573 100.673 37.0211 100.673 37.0211H100.459H95.8677L93.8325 59.4802H107.295L107.743 54.9421L105.16 54.988Z" fill="#3284BF"/>
<rect width="15.9118" height="17.6125" fill="black" fill-opacity="0" transform="translate(108.784 59.4832) scale(1.33333 -1.33333)"/>
<path d="M121.625 35.9998H121.483H121.055L108.784 59.4766H113.923C113.923 59.4766 115.511 56.1877 115.618 55.978H123.834C123.912 56.2401 124.901 59.4832 124.901 59.4832L130 59.4766L121.625 35.9998ZM117.542 51.9051C117.542 51.9051 120.289 45.9496 120.35 45.8142C120.476 45.5194 120.599 45.1569 120.646 44.9559H120.712C120.733 45.2093 120.777 45.515 120.868 45.8186C121.093 46.7489 122.674 51.9116 122.674 51.9116L117.542 51.9051Z" fill="#3284BF"/>
</svg>
