<?xml version="1.0" encoding="UTF-8" standalone="no"?>
<svg
   xmlns:dc="http://purl.org/dc/elements/1.1/"
   xmlns:cc="http://creativecommons.org/ns#"
   xmlns:rdf="http://www.w3.org/1999/02/22-rdf-syntax-ns#"
   xmlns:svg="http://www.w3.org/2000/svg"
   xmlns="http://www.w3.org/2000/svg"
   xmlns:sodipodi="http://sodipodi.sourceforge.net/DTD/sodipodi-0.dtd"
   xmlns:inkscape="http://www.inkscape.org/namespaces/inkscape"
   width="470"
   height="102"
   viewBox="0 0 470 102"
   fill="none"
   id="svg2"
   version="1.1"
   inkscape:version="1.0.2 (e86c870879, 2021-01-15, custom)"
   sodipodi:docname="vmgLogoHeader.svg">
  <metadata
     id="metadata44">
    <rdf:RDF>
      <cc:Work
         rdf:about="">
        <dc:format>image/svg+xml</dc:format>
        <dc:type
           rdf:resource="http://purl.org/dc/dcmitype/StillImage" />
        <dc:title></dc:title>
      </cc:Work>
    </rdf:RDF>
  </metadata>
  <defs
     id="defs42" />
  <sodipodi:namedview
     pagecolor="#ffffff"
     bordercolor="#666666"
     borderopacity="1"
     objecttolerance="10"
     gridtolerance="10"
     guidetolerance="10"
     inkscape:pageopacity="0"
     inkscape:pageshadow="2"
     inkscape:window-width="2560"
     inkscape:window-height="1377"
     id="namedview40"
     showgrid="false"
     inkscape:zoom="0.82777036"
     inkscape:cx="400.22505"
     inkscape:cy="95.424491"
     inkscape:window-x="1072"
     inkscape:window-y="274"
     inkscape:window-maximized="1"
     inkscape:current-layer="svg2"
     inkscape:document-rotation="0" />
  <rect
     width="749"
     height="102"
     id="rect4"
     fill-opacity="0"
     fill="#000000"
     x="0"
     y="0" />
  <rect
     width="749"
     height="102"
     id="rect6"
     fill-opacity="0"
     fill="#000000"
     x="0"
     y="0" />
  <rect
     width="460.27258"
     height="102"
     id="rect8"
     x="0"
     y="0"
     style="fill:#ffffff;fill-opacity:1;stroke-width:0.782649" />
  <path
     d="m 151.47,72.597 h 0.377 c 0.251,0 0.438,-0.0347 0.559,-0.104 0.13,-0.078 0.195,-0.1993 0.195,-0.364 v -7.631 h -1.781 c -0.347,0 -0.594,0.234 -0.741,0.702 -0.139,0.4593 -0.212,0.91 -0.221,1.352 h -0.403 V 63.9 h 7.852 v 2.652 h -0.416 c -0.009,-0.442 -0.087,-0.8927 -0.234,-1.352 -0.139,-0.468 -0.381,-0.702 -0.728,-0.702 h -1.768 v 7.631 c 0,0.312 0.247,0.468 0.741,0.468 h 0.39 V 73 h -3.822 z m 14.935,0.013 V 73 h -3.354 v -0.39 h 0.221 c 0.199,0 0.359,-0.0347 0.481,-0.104 0.121,-0.0693 0.182,-0.1777 0.182,-0.325 v -3.484 c 0,-0.442 -0.109,-0.7713 -0.325,-0.988 -0.217,-0.2253 -0.529,-0.338 -0.936,-0.338 -0.278,0 -0.551,0.0737 -0.819,0.221 -0.26,0.1473 -0.477,0.3727 -0.65,0.676 -0.174,0.3033 -0.26,0.6717 -0.26,1.105 v 2.808 c 0,0.1473 0.06,0.2557 0.182,0.325 0.121,0.0693 0.281,0.104 0.481,0.104 h 0.221 V 73 h -3.354 v -0.39 h 0.273 c 0.216,0 0.385,-0.0347 0.507,-0.104 0.13,-0.0693 0.195,-0.1777 0.195,-0.325 v -7.293 c 0,-0.208 -0.104,-0.312 -0.312,-0.312 -0.07,0 -0.187,0.0303 -0.351,0.091 l -0.104,-0.338 1.898,-0.65 h 0.364 v 4.16 c 0.199,-0.312 0.498,-0.5677 0.897,-0.767 0.398,-0.208 0.832,-0.312 1.3,-0.312 0.745,0 1.313,0.1603 1.703,0.481 0.39,0.3207 0.585,0.754 0.585,1.3 v 3.64 c 0,0.1473 0.06,0.2557 0.182,0.325 0.13,0.0693 0.303,0.104 0.52,0.104 z m 2.605,-2.925 c -0.009,0.0607 -0.013,0.1517 -0.013,0.273 0,0.7887 0.186,1.4257 0.559,1.911 0.373,0.4853 0.867,0.728 1.482,0.728 0.572,0 1.04,-0.143 1.404,-0.429 0.364,-0.2947 0.602,-0.7453 0.715,-1.352 h 0.429 c -0.069,0.6847 -0.338,1.2437 -0.806,1.677 -0.468,0.4247 -1.118,0.637 -1.95,0.637 -1.066,0 -1.894,-0.273 -2.483,-0.819 -0.581,-0.5547 -0.871,-1.3433 -0.871,-2.366 0,-0.988 0.29,-1.7637 0.871,-2.327 0.581,-0.572 1.382,-0.858 2.405,-0.858 0.945,0 1.66,0.2427 2.145,0.728 0.485,0.4767 0.728,1.1007 0.728,1.872 v 0.325 z m 1.794,-2.366 c -0.468,0 -0.849,0.1647 -1.144,0.494 -0.295,0.3207 -0.49,0.754 -0.585,1.3 h 3.237 c -0.009,-0.4507 -0.134,-0.8623 -0.377,-1.235 -0.234,-0.3727 -0.611,-0.559 -1.131,-0.559 z m 16.783,5.278 V 73 h -2.366 l -3.952,-4.095 v 3.224 c 0,0.312 0.247,0.468 0.741,0.468 h 0.39 V 73 h -3.822 v -0.403 h 0.377 c 0.251,0 0.438,-0.0347 0.559,-0.104 0.13,-0.078 0.195,-0.1993 0.195,-0.364 v -7.345 c 0,-0.3207 -0.251,-0.481 -0.754,-0.481 h -0.377 V 63.9 h 3.822 v 0.403 h -0.39 c -0.494,0 -0.741,0.1603 -0.741,0.481 v 3.172 l 3.653,-3.211 c 0.069,-0.0693 0.104,-0.1343 0.104,-0.195 0,-0.1647 -0.165,-0.247 -0.494,-0.247 h -0.195 V 63.9 h 2.756 v 0.403 h -0.286 c -0.156,0 -0.29,0.026 -0.403,0.078 -0.113,0.052 -0.225,0.1257 -0.338,0.221 l -3.796,3.393 3.783,3.926 c 0.225,0.2253 0.42,0.3943 0.585,0.507 0.165,0.1127 0.355,0.169 0.572,0.169 z m 2.242,0.533 c -0.537,0 -0.966,-0.1213 -1.287,-0.364 -0.32,-0.2513 -0.481,-0.5893 -0.481,-1.014 0,-0.65 0.334,-1.1743 1.001,-1.573 0.668,-0.4073 1.695,-0.7063 3.081,-0.897 v -0.624 c 0,-0.4333 -0.134,-0.7583 -0.403,-0.975 -0.26,-0.2167 -0.611,-0.325 -1.053,-0.325 -0.32,0 -0.615,0.065 -0.884,0.195 -0.26,0.1213 -0.39,0.2513 -0.39,0.39 0,0.0607 0.009,0.1343 0.026,0.221 0.018,0.078 0.026,0.1387 0.026,0.182 0,0.13 -0.047,0.247 -0.143,0.351 -0.086,0.104 -0.225,0.156 -0.416,0.156 -0.164,0 -0.307,-0.0607 -0.429,-0.182 -0.112,-0.1213 -0.169,-0.2903 -0.169,-0.507 0,-0.4507 0.256,-0.7973 0.767,-1.04 0.512,-0.2427 1.153,-0.364 1.924,-0.364 0.858,0 1.513,0.1863 1.963,0.559 0.46,0.364 0.689,0.8667 0.689,1.508 v 3.341 c 0,0.2773 0.104,0.416 0.312,0.416 0.13,0 0.291,-0.0347 0.481,-0.104 v 0.273 c -0.156,0.1213 -0.346,0.2123 -0.572,0.273 -0.225,0.0693 -0.459,0.104 -0.702,0.104 -0.268,0 -0.502,-0.0477 -0.702,-0.143 -0.199,-0.104 -0.299,-0.2773 -0.299,-0.52 v -0.312 c -0.329,0.364 -0.702,0.6197 -1.118,0.767 -0.416,0.1387 -0.823,0.208 -1.222,0.208 z m 0.728,-0.598 c 0.286,0 0.585,-0.0953 0.897,-0.286 0.312,-0.1907 0.542,-0.4117 0.689,-0.663 V 69.75 c -0.858,0.1907 -1.508,0.455 -1.95,0.793 -0.433,0.338 -0.65,0.702 -0.65,1.092 0,0.286 0.091,0.507 0.273,0.663 0.182,0.156 0.429,0.234 0.741,0.234 z m 7.687,0.598 c -0.875,0 -1.56,-0.2643 -2.054,-0.793 -0.494,-0.5287 -0.741,-1.3693 -0.741,-2.522 0,-0.6587 0.122,-1.2177 0.364,-1.677 0.243,-0.4593 0.572,-0.8017 0.988,-1.027 0.416,-0.234 0.893,-0.351 1.43,-0.351 0.936,0 1.63,0.286 2.08,0.858 v -2.73 c 0,-0.208 -0.099,-0.312 -0.299,-0.312 -0.078,0 -0.199,0.0303 -0.364,0.091 l -0.091,-0.338 1.885,-0.65 h 0.364 v 8.346 c 0,0.1647 0.044,0.286 0.13,0.364 0.096,0.0693 0.239,0.104 0.429,0.104 h 0.312 v 0.364 l -2.093,0.208 -0.065,-1.014 c -0.234,0.3727 -0.537,0.6457 -0.91,0.819 -0.372,0.1733 -0.827,0.26 -1.365,0.26 z m 0.429,-0.572 c 0.512,0 0.915,-0.1733 1.209,-0.52 0.295,-0.3467 0.442,-0.7583 0.442,-1.235 v -1.937 c 0,-0.2947 -0.078,-0.5547 -0.234,-0.78 -0.156,-0.234 -0.355,-0.416 -0.598,-0.546 -0.242,-0.13 -0.489,-0.195 -0.741,-0.195 -1.213,0 -1.82,0.8363 -1.82,2.509 0,1.8027 0.581,2.704 1.742,2.704 z m 6.805,0.572 c -0.537,0 -0.966,-0.1213 -1.287,-0.364 -0.32,-0.2513 -0.481,-0.5893 -0.481,-1.014 0,-0.65 0.334,-1.1743 1.001,-1.573 0.668,-0.4073 1.695,-0.7063 3.081,-0.897 v -0.624 c 0,-0.4333 -0.134,-0.7583 -0.403,-0.975 -0.26,-0.2167 -0.611,-0.325 -1.053,-0.325 -0.32,0 -0.615,0.065 -0.884,0.195 -0.26,0.1213 -0.39,0.2513 -0.39,0.39 0,0.0607 0.009,0.1343 0.026,0.221 0.018,0.078 0.026,0.1387 0.026,0.182 0,0.13 -0.047,0.247 -0.143,0.351 -0.086,0.104 -0.225,0.156 -0.416,0.156 -0.164,0 -0.307,-0.0607 -0.429,-0.182 -0.112,-0.1213 -0.169,-0.2903 -0.169,-0.507 0,-0.4507 0.256,-0.7973 0.767,-1.04 0.512,-0.2427 1.153,-0.364 1.924,-0.364 0.858,0 1.513,0.1863 1.963,0.559 0.46,0.364 0.689,0.8667 0.689,1.508 v 3.341 c 0,0.2773 0.104,0.416 0.312,0.416 0.13,0 0.291,-0.0347 0.481,-0.104 v 0.273 c -0.156,0.1213 -0.346,0.2123 -0.572,0.273 -0.225,0.0693 -0.459,0.104 -0.702,0.104 -0.268,0 -0.502,-0.0477 -0.702,-0.143 -0.199,-0.104 -0.299,-0.2773 -0.299,-0.52 v -0.312 c -0.329,0.364 -0.702,0.6197 -1.118,0.767 -0.416,0.1387 -0.823,0.208 -1.222,0.208 z m 0.728,-0.598 c 0.286,0 0.585,-0.0953 0.897,-0.286 0.312,-0.1907 0.542,-0.4117 0.689,-0.663 V 69.75 c -0.858,0.1907 -1.508,0.455 -1.95,0.793 -0.433,0.338 -0.65,0.702 -0.65,1.092 0,0.286 0.091,0.507 0.273,0.663 0.182,0.156 0.429,0.234 0.741,0.234 z M 222.63,72.61 V 73 h -3.406 v -0.39 h 0.273 c 0.216,0 0.385,-0.0347 0.507,-0.104 0.13,-0.0693 0.195,-0.1777 0.195,-0.325 v -3.484 c 0,-0.442 -0.1,-0.7713 -0.299,-0.988 -0.2,-0.2253 -0.473,-0.338 -0.819,-0.338 -0.425,0 -0.793,0.1733 -1.105,0.52 -0.304,0.338 -0.455,0.832 -0.455,1.482 v 2.795 c 0,0.1473 0.06,0.26 0.182,0.338 0.13,0.0693 0.303,0.104 0.52,0.104 h 0.117 V 73 h -3.094 v -0.39 h 0.143 c 0.216,0 0.385,-0.0347 0.507,-0.104 0.13,-0.0693 0.195,-0.1777 0.195,-0.325 v -3.484 c 0,-0.442 -0.1,-0.7713 -0.299,-0.988 -0.2,-0.2253 -0.473,-0.338 -0.819,-0.338 -0.425,0 -0.789,0.1733 -1.092,0.52 -0.304,0.338 -0.455,0.832 -0.455,1.482 v 2.795 c 0,0.1473 0.06,0.26 0.182,0.338 0.13,0.0693 0.303,0.104 0.52,0.104 h 0.247 V 73 h -3.419 v -0.39 h 0.286 c 0.208,0 0.372,-0.0347 0.494,-0.104 0.13,-0.0693 0.195,-0.1777 0.195,-0.325 v -4.147 c 0,-0.208 -0.1,-0.312 -0.299,-0.312 -0.078,0 -0.2,0.0303 -0.364,0.091 l -0.091,-0.338 1.885,-0.65 h 0.364 v 0.988 c 0.182,-0.3033 0.45,-0.5547 0.806,-0.754 0.355,-0.1993 0.758,-0.299 1.209,-0.299 0.563,0 1.009,0.104 1.339,0.312 0.338,0.208 0.559,0.5027 0.663,0.884 0.147,-0.338 0.411,-0.6197 0.793,-0.845 0.39,-0.234 0.827,-0.351 1.313,-0.351 0.702,0 1.235,0.1603 1.599,0.481 0.364,0.3207 0.546,0.754 0.546,1.3 v 3.627 c 0,0.1473 0.06,0.26 0.182,0.338 0.13,0.0693 0.299,0.104 0.507,0.104 z m 5.089,0.52 c -0.555,0 -1.023,-0.0867 -1.404,-0.26 -0.373,-0.182 -0.654,-0.4247 -0.845,-0.728 L 225.08,73 h -0.702 v -8.112 c 0,-0.208 -0.1,-0.312 -0.299,-0.312 -0.078,0 -0.199,0.0303 -0.364,0.091 l -0.091,-0.338 1.885,-0.65 h 0.364 v 4.056 c 0.217,-0.3293 0.516,-0.572 0.897,-0.728 0.381,-0.1647 0.767,-0.247 1.157,-0.247 0.858,0 1.543,0.2687 2.054,0.806 0.511,0.5287 0.767,1.287 0.767,2.275 0,1.17 -0.264,2.0107 -0.793,2.522 -0.52,0.5113 -1.265,0.767 -2.236,0.767 z m -0.195,-0.572 c 1.161,0 1.742,-0.884 1.742,-2.652 0,-1.7073 -0.602,-2.561 -1.807,-2.561 -0.251,0 -0.498,0.0693 -0.741,0.208 -0.243,0.1387 -0.446,0.338 -0.611,0.598 -0.156,0.2513 -0.234,0.5373 -0.234,0.858 v 1.742 c 0,0.312 0.065,0.6067 0.195,0.884 0.13,0.2687 0.321,0.4897 0.572,0.663 0.251,0.1733 0.546,0.26 0.884,0.26 z m 6.026,-6.838 c -0.251,0 -0.455,-0.0737 -0.611,-0.221 -0.156,-0.156 -0.234,-0.351 -0.234,-0.585 0,-0.2427 0.078,-0.4377 0.234,-0.585 0.156,-0.156 0.36,-0.234 0.611,-0.234 0.243,0 0.442,0.078 0.598,0.234 0.156,0.1473 0.234,0.3423 0.234,0.585 0,0.234 -0.078,0.429 -0.234,0.585 -0.156,0.1473 -0.355,0.221 -0.598,0.221 z m -1.599,6.89 h 0.273 c 0.217,0 0.386,-0.0347 0.507,-0.104 0.13,-0.0693 0.195,-0.1777 0.195,-0.325 v -4.16 c 0,-0.2167 -0.104,-0.325 -0.312,-0.325 -0.043,0 -0.104,0.013 -0.182,0.039 -0.069,0.026 -0.126,0.0433 -0.169,0.052 l -0.104,-0.338 1.898,-0.637 h 0.364 v 5.369 c 0,0.1473 0.061,0.2557 0.182,0.325 0.13,0.0693 0.299,0.104 0.507,0.104 h 0.286 V 73 h -3.445 z m 8.349,-0.013 h 0.377 c 0.251,0 0.438,-0.0347 0.559,-0.104 0.13,-0.078 0.195,-0.1993 0.195,-0.364 v -7.345 c 0,-0.3207 -0.251,-0.481 -0.754,-0.481 H 240.3 V 63.9 h 3.822 v 0.403 h -0.39 c -0.494,0 -0.741,0.1603 -0.741,0.481 v 7.059 c 0,0.3727 0.26,0.559 0.78,0.559 h 2.405 c 0.364,0 0.641,-0.2123 0.832,-0.637 0.199,-0.4247 0.325,-0.8493 0.377,-1.274 h 0.429 L 247.58,73 h -7.28 z m 10.336,0.533 c -0.537,0 -0.966,-0.1213 -1.287,-0.364 -0.32,-0.2513 -0.481,-0.5893 -0.481,-1.014 0,-0.65 0.334,-1.1743 1.001,-1.573 0.668,-0.4073 1.695,-0.7063 3.081,-0.897 v -0.624 c 0,-0.4333 -0.134,-0.7583 -0.403,-0.975 -0.26,-0.2167 -0.611,-0.325 -1.053,-0.325 -0.32,0 -0.615,0.065 -0.884,0.195 -0.26,0.1213 -0.39,0.2513 -0.39,0.39 0,0.0607 0.009,0.1343 0.026,0.221 0.018,0.078 0.026,0.1387 0.026,0.182 0,0.13 -0.047,0.247 -0.143,0.351 -0.086,0.104 -0.225,0.156 -0.416,0.156 -0.164,0 -0.307,-0.0607 -0.429,-0.182 -0.112,-0.1213 -0.169,-0.2903 -0.169,-0.507 0,-0.4507 0.256,-0.7973 0.767,-1.04 0.512,-0.2427 1.153,-0.364 1.924,-0.364 0.858,0 1.513,0.1863 1.963,0.559 0.46,0.364 0.689,0.8667 0.689,1.508 v 3.341 c 0,0.2773 0.104,0.416 0.312,0.416 0.13,0 0.291,-0.0347 0.481,-0.104 v 0.273 c -0.156,0.1213 -0.346,0.2123 -0.572,0.273 -0.225,0.0693 -0.459,0.104 -0.702,0.104 -0.268,0 -0.502,-0.0477 -0.702,-0.143 -0.199,-0.104 -0.299,-0.2773 -0.299,-0.52 v -0.312 c -0.329,0.364 -0.702,0.6197 -1.118,0.767 -0.416,0.1387 -0.823,0.208 -1.222,0.208 z m 0.728,-0.598 c 0.286,0 0.585,-0.0953 0.897,-0.286 0.312,-0.1907 0.542,-0.4117 0.689,-0.663 V 69.75 c -0.858,0.1907 -1.508,0.455 -1.95,0.793 -0.433,0.338 -0.65,0.702 -0.65,1.092 0,0.286 0.091,0.507 0.273,0.663 0.182,0.156 0.429,0.234 0.741,0.234 z m 8.857,0.598 c -0.554,0 -1.022,-0.0867 -1.404,-0.26 -0.372,-0.182 -0.654,-0.4247 -0.845,-0.728 L 257.582,73 h -0.702 v -8.112 c 0,-0.208 -0.099,-0.312 -0.299,-0.312 -0.078,0 -0.199,0.0303 -0.364,0.091 l -0.091,-0.338 1.885,-0.65 h 0.364 v 4.056 c 0.217,-0.3293 0.516,-0.572 0.897,-0.728 0.382,-0.1647 0.767,-0.247 1.157,-0.247 0.858,0 1.543,0.2687 2.054,0.806 0.512,0.5287 0.767,1.287 0.767,2.275 0,1.17 -0.264,2.0107 -0.793,2.522 -0.52,0.5113 -1.265,0.767 -2.236,0.767 z m -0.195,-0.572 c 1.162,0 1.742,-0.884 1.742,-2.652 0,-1.7073 -0.602,-2.561 -1.807,-2.561 -0.251,0 -0.498,0.0693 -0.741,0.208 -0.242,0.1387 -0.446,0.338 -0.611,0.598 -0.156,0.2513 -0.234,0.5373 -0.234,0.858 v 1.742 c 0,0.312 0.065,0.6067 0.195,0.884 0.13,0.2687 0.321,0.4897 0.572,0.663 0.252,0.1733 0.546,0.26 0.884,0.26 z"
     id="path10"
     fill="#3284bf" />
  <path
     d="m 156.152,56 h -3.542 l -5.302,-14.52 h 3.212 l 3.058,9.24 0.836,2.86 0.814,-2.838 3.08,-9.262 h 3.124 z m 11.394,0 H 164.51 V 41.48 h 3.036 z m 9.957,-14.74 c 1.349,0 2.508,0.2273 3.476,0.682 0.968,0.44 1.818,1.144 2.552,2.112 l -2.09,2.046 c -0.382,-0.792 -0.888,-1.3787 -1.518,-1.76 -0.631,-0.396 -1.43,-0.594 -2.398,-0.594 -0.88,0 -1.562,0.1687 -2.046,0.506 -0.47,0.3227 -0.704,0.7553 -0.704,1.298 0,0.4987 0.242,0.8947 0.726,1.188 0.484,0.2933 1.356,0.55 2.618,0.77 1.32,0.2493 2.368,0.5573 3.146,0.924 0.777,0.3667 1.342,0.8287 1.694,1.386 0.366,0.5427 0.55,1.2247 0.55,2.046 0,0.8947 -0.257,1.672 -0.77,2.332 -0.499,0.6453 -1.203,1.144 -2.112,1.496 -0.895,0.352 -1.922,0.528 -3.08,0.528 -1.599,0 -2.912,-0.22 -3.938,-0.66 -1.012,-0.4547 -1.834,-1.1367 -2.464,-2.046 l 1.804,-2.156 c 0.542,0.8947 1.166,1.518 1.87,1.87 0.704,0.3373 1.576,0.506 2.618,0.506 0.938,0 1.65,-0.1467 2.134,-0.44 0.498,-0.2933 0.748,-0.7113 0.748,-1.254 0,-0.396 -0.235,-0.726 -0.704,-0.99 -0.455,-0.264 -1.276,-0.5133 -2.464,-0.748 -1.364,-0.2787 -2.457,-0.6087 -3.278,-0.99 -0.807,-0.3813 -1.394,-0.8507 -1.76,-1.408 -0.367,-0.5573 -0.55,-1.2467 -0.55,-2.068 0,-0.8653 0.234,-1.6427 0.704,-2.332 0.469,-0.704 1.151,-1.254 2.046,-1.65 0.909,-0.396 1.972,-0.594 3.19,-0.594 z m 21.903,9.02 c 0,1.9653 -0.528,3.4467 -1.584,4.444 -1.042,0.9973 -2.582,1.496 -4.62,1.496 -2.039,0 -3.586,-0.4987 -4.642,-1.496 -1.042,-0.9973 -1.562,-2.4787 -1.562,-4.444 v -8.8 h 3.036 v 8.668 c 0,1.2173 0.256,2.1193 0.77,2.706 0.528,0.5867 1.327,0.88 2.398,0.88 1.07,0 1.862,-0.2933 2.376,-0.88 0.513,-0.5867 0.77,-1.4887 0.77,-2.706 V 41.48 h 3.058 z m 12.131,2.178 h -5.588 L 204.761,56 h -3.102 l 5.302,-14.52 h 3.63 L 215.893,56 h -3.146 z m -0.748,-2.244 -1.364,-4.092 -0.66,-2.2 h -0.044 l -0.616,2.156 -1.408,4.136 z m 18.83,3.344 V 56 H 218.927 V 41.48 h 3.036 V 53.558 Z M 255.883,56 h -2.728 v -7.568 l 0.132,-4.246 h -0.044 L 249.217,56 h -2.486 l -4.004,-11.814 h -0.044 l 0.154,4.246 V 56 h -2.75 V 41.48 h 4.4 l 2.618,7.92 0.924,3.278 h 0.044 l 0.946,-3.256 2.596,-7.942 h 4.268 z m 12.906,-3.542 h -5.588 L 262.013,56 h -3.102 l 5.302,-14.52 h 3.63 L 273.145,56 h -3.146 z m -0.748,-2.244 -1.364,-4.092 -0.66,-2.2 h -0.044 l -0.616,2.156 -1.408,4.136 z m 20.031,1.782 c -0.425,1.3933 -1.181,2.4493 -2.266,3.168 -1.085,0.704 -2.383,1.056 -3.894,1.056 -1.423,0 -2.662,-0.3007 -3.718,-0.902 -1.056,-0.6013 -1.87,-1.4593 -2.442,-2.574 -0.557,-1.1293 -0.836,-2.464 -0.836,-4.004 0,-1.54 0.279,-2.8673 0.836,-3.982 0.572,-1.1293 1.379,-1.9947 2.42,-2.596 1.056,-0.6013 2.288,-0.902 3.696,-0.902 1.511,0 2.787,0.3153 3.828,0.946 1.056,0.6307 1.782,1.5693 2.178,2.816 l -2.75,1.166 c -0.235,-0.8653 -0.601,-1.4887 -1.1,-1.87 -0.499,-0.3813 -1.173,-0.572 -2.024,-0.572 -1.232,0 -2.2,0.4327 -2.904,1.298 -0.689,0.8653 -1.034,2.0973 -1.034,3.696 0,1.5987 0.337,2.8307 1.012,3.696 0.675,0.8653 1.628,1.298 2.86,1.298 1.775,0 2.889,-0.858 3.344,-2.574 z M 304.014,41.48 V 56 h -3.036 v -6.116 h -6.402 V 56 H 291.54 V 41.48 h 3.036 v 5.962 h 6.402 V 41.48 Z M 311.719,56 h -3.036 V 41.48 h 3.036 z m 17.129,0 h -3.476 l -5.082,-8.536 -1.254,-2.442 h -0.022 l 0.088,2.574 V 56 h -2.728 V 41.48 h 3.454 l 5.082,8.514 1.254,2.464 h 0.044 L 326.12,49.884 V 41.48 h 2.728 z m 15.868,-2.442 V 56 H 333.518 V 41.48 h 10.89 v 2.442 h -7.854 v 3.608 h 6.182 v 2.332 h -6.182 v 3.696 z m 8.905,-12.298 c 1.35,0 2.508,0.2273 3.476,0.682 0.968,0.44 1.819,1.144 2.552,2.112 l -2.09,2.046 c -0.381,-0.792 -0.887,-1.3787 -1.518,-1.76 -0.63,-0.396 -1.43,-0.594 -2.398,-0.594 -0.88,0 -1.562,0.1687 -2.046,0.506 -0.469,0.3227 -0.704,0.7553 -0.704,1.298 0,0.4987 0.242,0.8947 0.726,1.188 0.484,0.2933 1.357,0.55 2.618,0.77 1.32,0.2493 2.369,0.5573 3.146,0.924 0.778,0.3667 1.342,0.8287 1.694,1.386 0.367,0.5427 0.55,1.2247 0.55,2.046 0,0.8947 -0.256,1.672 -0.77,2.332 -0.498,0.6453 -1.202,1.144 -2.112,1.496 -0.894,0.352 -1.921,0.528 -3.08,0.528 -1.598,0 -2.911,-0.22 -3.938,-0.66 -1.012,-0.4547 -1.833,-1.1367 -2.464,-2.046 l 1.804,-2.156 c 0.543,0.8947 1.166,1.518 1.87,1.87 0.704,0.3373 1.577,0.506 2.618,0.506 0.939,0 1.65,-0.1467 2.134,-0.44 0.499,-0.2933 0.748,-0.7113 0.748,-1.254 0,-0.396 -0.234,-0.726 -0.704,-0.99 -0.454,-0.264 -1.276,-0.5133 -2.464,-0.748 -1.364,-0.2787 -2.456,-0.6087 -3.278,-0.99 -0.806,-0.3813 -1.393,-0.8507 -1.76,-1.408 -0.366,-0.5573 -0.55,-1.2467 -0.55,-2.068 0,-0.8653 0.235,-1.6427 0.704,-2.332 0.47,-0.704 1.152,-1.254 2.046,-1.65 0.91,-0.396 1.973,-0.594 3.19,-0.594 z m 29.904,7.062 V 56 h -2.222 l -0.066,-1.738 c -0.88,1.3053 -2.31,1.958 -4.29,1.958 -1.335,0 -2.508,-0.2933 -3.52,-0.88 -1.012,-0.5867 -1.804,-1.4373 -2.376,-2.552 -0.558,-1.1293 -0.836,-2.4713 -0.836,-4.026 0,-1.54 0.286,-2.8747 0.858,-4.004 0.586,-1.1293 1.408,-1.9947 2.464,-2.596 1.07,-0.6013 2.317,-0.902 3.74,-0.902 1.569,0 2.845,0.286 3.828,0.858 0.997,0.572 1.782,1.474 2.354,2.706 l -2.794,1.21 c -0.22,-0.748 -0.624,-1.3127 -1.21,-1.694 -0.572,-0.396 -1.269,-0.594 -2.09,-0.594 -1.262,0 -2.244,0.4327 -2.948,1.298 -0.704,0.8653 -1.056,2.0973 -1.056,3.696 0,1.6573 0.344,2.9113 1.034,3.762 0.689,0.8507 1.701,1.276 3.036,1.276 1.026,0 1.862,-0.242 2.508,-0.726 0.645,-0.4987 0.968,-1.2173 0.968,-2.156 v -0.33 h -4.246 v -2.244 z m 9.914,2.112 h -2.728 V 56 h -2.992 V 41.48 h 6.402 c 1.658,0 2.948,0.396 3.872,1.188 0.939,0.7773 1.408,1.8773 1.408,3.3 0,1.0413 -0.256,1.914 -0.77,2.618 -0.513,0.704 -1.246,1.21 -2.2,1.518 L 400.259,56 h -3.41 z m -2.728,-2.31 h 3.014 c 0.88,0 1.526,-0.1687 1.936,-0.506 0.426,-0.352 0.638,-0.8873 0.638,-1.606 0,-0.7187 -0.212,-1.2467 -0.638,-1.584 -0.41,-0.352 -1.056,-0.528 -1.936,-0.528 h -3.014 z m 18.961,-6.864 c 1.423,0 2.655,0.3007 3.696,0.902 1.056,0.6013 1.863,1.4667 2.42,2.596 0.572,1.1147 0.858,2.442 0.858,3.982 0,1.54 -0.286,2.8747 -0.858,4.004 -0.557,1.1147 -1.364,1.9727 -2.42,2.574 -1.041,0.6013 -2.273,0.902 -3.696,0.902 -1.423,0 -2.662,-0.3007 -3.718,-0.902 -1.056,-0.6013 -1.87,-1.4593 -2.442,-2.574 -0.557,-1.1293 -0.836,-2.464 -0.836,-4.004 0,-1.54 0.279,-2.8673 0.836,-3.982 0.572,-1.1293 1.386,-1.9947 2.442,-2.596 1.056,-0.6013 2.295,-0.902 3.718,-0.902 z m 0,2.486 c -1.232,0 -2.185,0.4327 -2.86,1.298 -0.66,0.8507 -0.99,2.0827 -0.99,3.696 0,1.6133 0.33,2.8527 0.99,3.718 0.675,0.8507 1.628,1.276 2.86,1.276 1.217,0 2.156,-0.4253 2.816,-1.276 0.675,-0.8653 1.012,-2.1047 1.012,-3.718 0,-1.6133 -0.337,-2.8453 -1.012,-3.696 -0.66,-0.8653 -1.599,-1.298 -2.816,-1.298 z m 23.105,6.534 c 0,1.9653 -0.528,3.4467 -1.584,4.444 -1.042,0.9973 -2.582,1.496 -4.62,1.496 -2.039,0 -3.586,-0.4987 -4.642,-1.496 -1.042,-0.9973 -1.562,-2.4787 -1.562,-4.444 v -8.8 h 3.036 v 8.668 c 0,1.2173 0.256,2.1193 0.77,2.706 0.528,0.5867 1.327,0.88 2.398,0.88 1.07,0 1.862,-0.2933 2.376,-0.88 0.513,-0.5867 0.77,-1.4887 0.77,-2.706 V 41.48 h 3.058 z m 10.512,-8.8 c 1.687,0 2.999,0.4107 3.938,1.232 0.939,0.8067 1.408,1.9507 1.408,3.432 0,1.4373 -0.469,2.5593 -1.408,3.366 -0.939,0.8067 -2.251,1.21 -3.938,1.21 h -3.058 V 56 h -3.036 V 41.48 Z m -0.462,6.886 c 0.939,0 1.628,-0.1833 2.068,-0.55 0.44,-0.3813 0.66,-0.946 0.66,-1.694 0,-0.748 -0.22,-1.3053 -0.66,-1.672 -0.44,-0.3667 -1.129,-0.55 -2.068,-0.55 h -2.596 v 4.466 z"
     id="path12"
     fill="#000000" />
  <rect
     width="80"
     height="24.0002"
     id="rect14"
     fill-opacity="0"
     fill="#000000"
     transform="translate(51,37)"
     x="0"
     y="0" />
  <rect
     width="80"
     height="24.0002"
     id="rect16"
     fill-opacity="0"
     fill="#000000"
     transform="translate(51,37)"
     x="0"
     y="0" />
  <rect
     width="60"
     height="18.0002"
     transform="matrix(1.33333,0,0,-1.33333,51,61.0001)"
     id="rect18"
     fill-opacity="0"
     fill="#000000"
     x="0"
     y="0" />
  <rect
     width="60"
     height="18.0002"
     transform="matrix(1.33333,0,0,-1.33333,51,61.0001)"
     id="rect20"
     fill-opacity="0"
     fill="#000000"
     x="0"
     y="0" />
  <rect
     width="60"
     height="18.0002"
     transform="matrix(1.33333,0,0,-1.33333,51,61.0001)"
     id="rect22"
     fill-opacity="0"
     fill="#000000"
     x="0"
     y="0" />
  <rect
     width="14.332"
     height="17.1408"
     transform="matrix(1.33333,0,0,-1.33333,51,60.91)"
     id="rect24"
     fill-opacity="0"
     fill="#000000"
     x="0"
     y="0" />
  <path
     d="m 65.3576,38.0557 -1.2648,13.7825 c -0.2939,2.8237 -2.0463,4.5097 -4.6916,4.5097 -1.1845,0 -2.1064,-0.3429 -2.7343,-1.0177 -0.7593,-0.8168 -1.0822,-2.1162 -0.933,-3.7606 L 56.9608,38.0557 H 52.2069 L 51.0022,51.4254 C 51.0022,51.4407 51,51.8687 51,51.8687 l 0.0579,2.0442 c 0.5745,4.3219 3.6317,6.9971 7.9759,6.9971 5.442,0 9.3075,-3.6121 9.8397,-9.2203 l 1.2358,-13.634 h -0.1848 z"
     id="path26"
     fill="#3284bf" />
  <rect
     width="14.0725"
     height="17.553499"
     transform="matrix(1.33333,0,0,-1.33333,73.353,61)"
     id="rect28"
     fill-opacity="0"
     fill="#000000"
     x="0"
     y="0" />
  <path
     d="m 86.1066,37.5953 c -7.0608,0 -12.0441,4.632 -12.6987,11.7995 -0.2984,3.3654 0.6279,6.3835 2.6118,8.5063 1.886,2.0332 4.6338,3.0989 7.9404,3.0989 2.073,0 4.1171,-0.5569 6.2591,-1.6903 l 0.0936,-0.0503 0.5455,-6.0318 -0.3897,0.3843 c -1.8592,1.8214 -3.8143,2.6665 -6.1567,2.6665 -1.9283,0 -3.5115,-0.6071 -4.5825,-1.7493 -1.1468,-1.236 -1.6767,-3.0727 -1.4852,-5.1845 0.3963,-4.3634 3.2443,-7.0692 7.4393,-7.0692 1.7791,0 3.8299,0.297 5.5556,2.5376 l 0.3117,0.391 0.5656,-5.8681 -0.1047,-0.0612 C 90.2237,38.15 88.2909,37.5953 86.1066,37.5953 Z"
     id="path30"
     fill="#3284bf" />
  <rect
     width="10.4325"
     height="16.844299"
     transform="matrix(1.33333,0,0,-1.33333,94.8325,60.4801)"
     id="rect32"
     fill-opacity="0"
     fill="#000000"
     x="0"
     y="0" />
  <path
     d="m 106.16,55.9879 h -6.093 c 0.038,-0.415 1.606,-17.9669 1.606,-17.9669 h -0.214 -4.5913 l -2.0352,22.4591 h 13.4625 l 0.448,-4.5381 z"
     id="path34"
     fill="#3284bf" />
  <rect
     width="15.9118"
     height="17.612499"
     transform="matrix(1.33333,0,0,-1.33333,109.784,60.4832)"
     id="rect36"
     fill-opacity="0"
     fill="#000000"
     x="0"
     y="0" />
  <path
     d="m 122.625,36.9998 h -0.142 -0.428 l -12.271,23.4768 h 5.139 c 0,0 1.588,-3.2889 1.695,-3.4986 h 8.216 c 0.078,0.2621 1.067,3.5052 1.067,3.5052 L 131,60.4766 Z m -4.083,15.9053 c 0,0 2.747,-5.9555 2.808,-6.0909 0.126,-0.2948 0.249,-0.6573 0.296,-0.8583 h 0.066 c 0.021,0.2534 0.065,0.5591 0.156,0.8627 0.225,0.9303 1.806,6.093 1.806,6.093 z"
     id="path38"
     fill="#3284bf" />
</svg>
