<svg xmlns="http://www.w3.org/2000/svg" version="1.1" x="0" y="0" viewBox="0 0 496 620" xml:space="preserve"><style type="text/css">
	.st0{fill:#e0e0e0;}
	.st1{fill:#e0e0e0;}
	.st2{fill:#e0e0e0;}
	.st3{fill:none;}
	.st4{fill:#e0e0e0;}
</style><rect x="32" y="48" class="st1" width="432" height="80"/><path class="st2" d="M0 0v620h496V0H0zM16 604V32h464v572H16z"/><rect x="32" y="160" class="st2" width="208" height="120"/><rect x="256" y="160" class="st2" width="208" height="120"/><rect x="32" y="308" class="st1" width="208" height="8"/><rect x="32" y="328" class="st1" width="208" height="8"/><rect x="256" y="308" class="st1" width="208" height="8"/><rect x="256" y="328" class="st1" width="208" height="8"/><rect x="32" y="348" class="st1" width="208" height="8"/><rect x="32" y="368" class="st1" width="208" height="8"/><rect x="256" y="348" class="st1" width="208" height="8"/><rect x="256" y="368" class="st1" width="208" height="8"/><rect x="32" y="388" class="st1" width="208" height="8"/><rect x="32" y="408" class="st1" width="208" height="8"/><rect x="256" y="388" class="st1" width="208" height="8"/><rect x="256" y="408" class="st1" width="208" height="8"/><rect x="32" y="428" class="st1" width="208" height="8"/><rect x="32" y="448" class="st1" width="208" height="8"/><rect x="256" y="428" class="st1" width="208" height="8"/><rect x="256" y="448" class="st1" width="208" height="8"/><rect x="32" y="468" class="st1" width="208" height="8"/><rect x="32" y="488" class="st1" width="208" height="8"/><rect x="256" y="468" class="st1" width="208" height="8"/><rect x="256" y="488" class="st1" width="208" height="8"/><rect x="32" y="508" class="st1" width="208" height="8"/><rect x="32" y="528" class="st1" width="208" height="8"/><rect x="256" y="508" class="st1" width="208" height="8"/><rect x="256" y="528" class="st1" width="208" height="8"/></svg>