<svg width="306" height="27" viewBox="0 0 306 27" fill="none" xmlns="http://www.w3.org/2000/svg">
<path d="M9.152 20H5.61L0.308 5.48H3.52L6.578 14.72L7.414 17.58L8.228 14.742L11.308 5.48H14.432L9.152 20ZM20.3263 20H17.2903V5.48H20.3263V20ZM30.0628 5.26C31.4122 5.26 32.5708 5.48733 33.5388 5.942C34.5068 6.382 35.3575 7.086 36.0908 8.054L34.0008 10.1C33.6195 9.308 33.1135 8.72133 32.4828 8.34C31.8522 7.944 31.0528 7.746 30.0848 7.746C29.2048 7.746 28.5228 7.91467 28.0388 8.252C27.5695 8.57467 27.3348 9.00733 27.3348 9.55C27.3348 10.0487 27.5768 10.4447 28.0608 10.738C28.5448 11.0313 29.4175 11.288 30.6788 11.508C31.9988 11.7573 33.0475 12.0653 33.8248 12.432C34.6022 12.7987 35.1668 13.2607 35.5188 13.818C35.8855 14.3607 36.0688 15.0427 36.0688 15.864C36.0688 16.7587 35.8122 17.536 35.2988 18.196C34.8002 18.8413 34.0962 19.34 33.1868 19.692C32.2922 20.044 31.2655 20.22 30.1068 20.22C28.5082 20.22 27.1955 20 26.1688 19.56C25.1568 19.1053 24.3355 18.4233 23.7048 17.514L25.5088 15.358C26.0515 16.2527 26.6748 16.876 27.3788 17.228C28.0828 17.5653 28.9555 17.734 29.9968 17.734C30.9355 17.734 31.6468 17.5873 32.1308 17.294C32.6295 17.0007 32.8788 16.5827 32.8788 16.04C32.8788 15.644 32.6442 15.314 32.1748 15.05C31.7202 14.786 30.8988 14.5367 29.7108 14.302C28.3468 14.0233 27.2542 13.6933 26.4328 13.312C25.6262 12.9307 25.0395 12.4613 24.6728 11.904C24.3062 11.3467 24.1228 10.6573 24.1228 9.836C24.1228 8.97067 24.3575 8.19333 24.8268 7.504C25.2962 6.8 25.9782 6.25 26.8728 5.854C27.7822 5.458 28.8455 5.26 30.0628 5.26ZM51.7455 14.28C51.7455 16.2453 51.2175 17.7267 50.1615 18.724C49.1202 19.7213 47.5802 20.22 45.5415 20.22C43.5029 20.22 41.9555 19.7213 40.8995 18.724C39.8582 17.7267 39.3375 16.2453 39.3375 14.28V5.48H42.3735V14.148C42.3735 15.3653 42.6302 16.2673 43.1435 16.854C43.6715 17.4407 44.4709 17.734 45.5415 17.734C46.6122 17.734 47.4042 17.4407 47.9175 16.854C48.4309 16.2673 48.6875 15.3653 48.6875 14.148V5.48H51.7455V14.28ZM63.657 16.458H58.069L56.881 20H53.779L59.081 5.48H62.711L68.013 20H64.867L63.657 16.458ZM62.909 14.214L61.545 10.122L60.885 7.922H60.841L60.225 10.078L58.817 14.214H62.909ZM81.5188 17.558V20H70.8268V5.48H73.8628V17.558H81.5188ZM107.343 20H104.615V12.432L104.747 8.186H104.703L100.677 20H98.1912L94.1872 8.186H94.1432L94.2972 12.432V20H91.5472V5.48H95.9472L98.5652 13.4L99.4892 16.678H99.5332L100.479 13.422L103.075 5.48H107.343V20ZM120.029 16.458H114.441L113.253 20H110.151L115.453 5.48H119.083L124.385 20H121.239L120.029 16.458ZM119.281 14.214L117.917 10.122L117.257 7.922H117.213L116.597 10.078L115.189 14.214H119.281ZM139.092 15.996C138.667 17.3893 137.911 18.4453 136.826 19.164C135.741 19.868 134.443 20.22 132.932 20.22C131.509 20.22 130.27 19.9193 129.214 19.318C128.158 18.7167 127.344 17.8587 126.772 16.744C126.215 15.6147 125.936 14.28 125.936 12.74C125.936 11.2 126.215 9.87267 126.772 8.758C127.344 7.62867 128.151 6.76333 129.192 6.162C130.248 5.56067 131.48 5.26 132.888 5.26C134.399 5.26 135.675 5.57533 136.716 6.206C137.772 6.83667 138.498 7.77533 138.894 9.022L136.144 10.188C135.909 9.32267 135.543 8.69933 135.044 8.318C134.545 7.93667 133.871 7.746 133.02 7.746C131.788 7.746 130.82 8.17867 130.116 9.044C129.427 9.90933 129.082 11.1413 129.082 12.74C129.082 14.3387 129.419 15.5707 130.094 16.436C130.769 17.3013 131.722 17.734 132.954 17.734C134.729 17.734 135.843 16.876 136.298 15.16L139.092 15.996ZM154.814 5.48V20H151.778V13.884H145.376V20H142.34V5.48H145.376V11.442H151.778V5.48H154.814ZM162.299 20H159.263V5.48H162.299V20ZM179.208 20H175.732L170.65 11.464L169.396 9.022H169.374L169.462 11.596V20H166.734V5.48H170.188L175.27 13.994L176.524 16.458H176.568L176.48 13.884V5.48H179.208V20ZM194.856 17.558V20H183.658V5.48H194.548V7.922H186.694V11.53H192.876V13.862H186.694V17.558H194.856ZM203.541 5.26C204.891 5.26 206.049 5.48733 207.017 5.942C207.985 6.382 208.836 7.086 209.569 8.054L207.479 10.1C207.098 9.308 206.592 8.72133 205.961 8.34C205.331 7.944 204.531 7.746 203.563 7.746C202.683 7.746 202.001 7.91467 201.517 8.252C201.048 8.57467 200.813 9.00733 200.813 9.55C200.813 10.0487 201.055 10.4447 201.539 10.738C202.023 11.0313 202.896 11.288 204.157 11.508C205.477 11.7573 206.526 12.0653 207.303 12.432C208.081 12.7987 208.645 13.2607 208.997 13.818C209.364 14.3607 209.547 15.0427 209.547 15.864C209.547 16.7587 209.291 17.536 208.777 18.196C208.279 18.8413 207.575 19.34 206.665 19.692C205.771 20.044 204.744 20.22 203.585 20.22C201.987 20.22 200.674 20 199.647 19.56C198.635 19.1053 197.814 18.4233 197.183 17.514L198.987 15.358C199.53 16.2527 200.153 16.876 200.857 17.228C201.561 17.5653 202.434 17.734 203.475 17.734C204.414 17.734 205.125 17.5873 205.609 17.294C206.108 17.0007 206.357 16.5827 206.357 16.04C206.357 15.644 206.123 15.314 205.653 15.05C205.199 14.786 204.377 14.5367 203.189 14.302C201.825 14.0233 200.733 13.6933 199.911 13.312C199.105 12.9307 198.518 12.4613 198.151 11.904C197.785 11.3467 197.601 10.6573 197.601 9.836C197.601 8.97067 197.836 8.19333 198.305 7.504C198.775 6.8 199.457 6.25 200.351 5.854C201.261 5.458 202.324 5.26 203.541 5.26ZM233.005 12.322V20H230.783L230.717 18.262C229.837 19.5673 228.407 20.22 226.427 20.22C225.092 20.22 223.919 19.9267 222.907 19.34C221.895 18.7533 221.103 17.9027 220.531 16.788C219.973 15.6587 219.695 14.3167 219.695 12.762C219.695 11.222 219.981 9.88733 220.553 8.758C221.139 7.62867 221.961 6.76333 223.017 6.162C224.087 5.56067 225.334 5.26 226.757 5.26C228.326 5.26 229.602 5.546 230.585 6.118C231.582 6.69 232.367 7.592 232.939 8.824L230.145 10.034C229.925 9.286 229.521 8.72133 228.935 8.34C228.363 7.944 227.666 7.746 226.845 7.746C225.583 7.746 224.601 8.17867 223.897 9.044C223.193 9.90933 222.841 11.1413 222.841 12.74C222.841 14.3973 223.185 15.6513 223.875 16.502C224.564 17.3527 225.576 17.778 226.911 17.778C227.937 17.778 228.773 17.536 229.419 17.052C230.064 16.5533 230.387 15.8347 230.387 14.896V14.566H226.141V12.322H233.005ZM242.699 14.434H239.971V20H236.979V5.48H243.381C245.039 5.48 246.329 5.876 247.253 6.668C248.192 7.44533 248.661 8.54533 248.661 9.968C248.661 11.0093 248.405 11.882 247.891 12.586C247.378 13.29 246.645 13.796 245.691 14.104L249.519 20H246.109L242.699 14.434ZM239.971 12.124H242.985C243.865 12.124 244.511 11.9553 244.921 11.618C245.347 11.266 245.559 10.7307 245.559 10.012C245.559 9.29333 245.347 8.76533 244.921 8.428C244.511 8.076 243.865 7.9 242.985 7.9H239.971V12.124ZM258.712 5.26C260.135 5.26 261.367 5.56067 262.408 6.162C263.464 6.76333 264.271 7.62867 264.828 8.758C265.4 9.87267 265.686 11.2 265.686 12.74C265.686 14.28 265.4 15.6147 264.828 16.744C264.271 17.8587 263.464 18.7167 262.408 19.318C261.367 19.9193 260.135 20.22 258.712 20.22C257.289 20.22 256.05 19.9193 254.994 19.318C253.938 18.7167 253.124 17.8587 252.552 16.744C251.995 15.6147 251.716 14.28 251.716 12.74C251.716 11.2 251.995 9.87267 252.552 8.758C253.124 7.62867 253.938 6.76333 254.994 6.162C256.05 5.56067 257.289 5.26 258.712 5.26ZM258.712 7.746C257.48 7.746 256.527 8.17867 255.852 9.044C255.192 9.89467 254.862 11.1267 254.862 12.74C254.862 14.3533 255.192 15.5927 255.852 16.458C256.527 17.3087 257.48 17.734 258.712 17.734C259.929 17.734 260.868 17.3087 261.528 16.458C262.203 15.5927 262.54 14.3533 262.54 12.74C262.54 11.1267 262.203 9.89467 261.528 9.044C260.868 8.17867 259.929 7.746 258.712 7.746ZM281.597 14.28C281.597 16.2453 281.069 17.7267 280.013 18.724C278.971 19.7213 277.431 20.22 275.393 20.22C273.354 20.22 271.807 19.7213 270.751 18.724C269.709 17.7267 269.189 16.2453 269.189 14.28V5.48H272.225V14.148C272.225 15.3653 272.481 16.2673 272.995 16.854C273.523 17.4407 274.322 17.734 275.393 17.734C276.463 17.734 277.255 17.4407 277.769 16.854C278.282 16.2673 278.539 15.3653 278.539 14.148V5.48H281.597V14.28ZM291.889 5.48C293.576 5.48 294.888 5.89067 295.827 6.712C296.766 7.51867 297.235 8.66267 297.235 10.144C297.235 11.5813 296.766 12.7033 295.827 13.51C294.888 14.3167 293.576 14.72 291.889 14.72H288.831V20H285.795V5.48H291.889ZM291.427 12.366C292.366 12.366 293.055 12.1827 293.495 11.816C293.935 11.4347 294.155 10.87 294.155 10.122C294.155 9.374 293.935 8.81667 293.495 8.45C293.055 8.08333 292.366 7.9 291.427 7.9H288.831V12.366H291.427Z" transform="translate(65.5298 0.416748) scale(0.75)" fill="white"/>
<path d="M8.40999 13.6554L7.66916 5.42041C7.497 3.73322 6.47053 2.72586 4.92105 2.72586C4.22717 2.72586 3.6872 2.93073 3.31939 3.33393C2.87463 3.82195 2.68551 4.59834 2.7729 5.58091L3.49156 13.6554H0.706919L0.00130418 5.66703C0.00130418 5.65789 0 5.40214 0 5.40214L0.0339113 4.18079C0.370415 1.59846 2.16119 0 4.70584 0C7.8935 0 10.1577 2.15825 10.4694 5.50914L11.1933 13.6554H11.0851H8.40999Z" transform="translate(0 16.5363) scale(1 -1)" fill="#3284BF"/>
<path d="M7.47042 13.9842C3.33455 13.9842 0.415573 11.2166 0.0321149 6.93405C-0.142658 4.92325 0.399922 3.11993 1.56203 1.8516C2.66676 0.636774 4.27624 0 6.21309 0C7.42738 0 8.62471 0.332741 9.87942 1.00997L9.9342 1.03998L10.2538 4.64401L10.0255 4.41436C8.93643 3.3261 7.79127 2.82112 6.41917 2.82112C5.28966 2.82112 4.36232 3.18387 3.73496 3.86631C3.06326 4.60487 2.75284 5.70226 2.86501 6.96406C3.09717 9.57118 4.76534 11.1879 7.22261 11.1879C8.26472 11.1879 9.46597 11.0104 10.4768 9.67166L10.6594 9.43809L10.9907 12.9443L10.9294 12.9808C9.88203 13.6528 8.74992 13.9842 7.47042 13.9842Z" transform="translate(13.0931 16.5901) scale(1 -1)" fill="#3284BF"/>
<path d="M6.63487 2.68411H3.06636C3.08853 2.93203 4.00675 13.4192 4.00675 13.4192H3.88153H1.19211L0 0H7.88567L8.14783 2.71151L6.63487 2.68411Z" transform="translate(25.675 16.2795) scale(1 -1)" fill="#3284BF"/>
<path d="M7.52178 14.0312H7.4383H7.18788L0 0.00391493H3.01028C3.01028 0.00391493 3.94023 1.96904 4.00283 2.09431H8.81562C8.86127 1.93772 9.44037 0 9.44037 0L12.4272 0.00391493L7.52178 14.0312ZM5.12973 4.52788C5.12973 4.52788 6.73921 8.08625 6.77443 8.16715C6.84877 8.34331 6.92051 8.55991 6.94789 8.67996H6.98702C6.99876 8.5286 7.02485 8.34592 7.07832 8.16454C7.21005 7.60867 8.13609 4.52397 8.13609 4.52397L5.12973 4.52788Z" transform="translate(34.433 16.2814) scale(1 -1)" fill="#3284BF"/>
</svg>
